<svg xmlns="http://www.w3.org/2000/svg" xmlns:xlink="http://www.w3.org/1999/xlink" width="254.863" height="127.432" viewBox="0 0 254.863 127.432"><defs><style>.a{fill:#fff;}.b{clip-path:url(#a);}.c,.d{fill:#f0f1f2;}.c{fill-rule:evenodd;}</style><clipPath id="a"><rect class="a" width="254.863" height="127.432" transform="translate(538 13)"/></clipPath></defs><g class="b" transform="translate(-538 -13)"><g transform="translate(551.395 12.516)"><g transform="matrix(0.999, -0.035, 0.035, 0.999, 78.919, 6.729)"><path class="c" d="M137.754,135.363a6.445,6.445,0,0,1-2.5-.505c-3.436-2.47-5.338-6.1-6.84-9.779-4.238-10.371-10.947-18.233-21.653-22.459a4.412,4.412,0,0,0-4.255.413c-3.133,1.785-6.413,3.336-8.262,4.286-4.78,1.059-7.943,2.107-11.216,2.413-6.581.617-13.233.794-19.843,1.214-8.63.546-17.032-1.233-25.391-3.806-5.582-1.72-9.537-5.762-13.7-9.517a2.83,2.83,0,0,1-.736-1.994,7.159,7.159,0,0,0-2.5-5.546c-2.595-2.634-5.167-5.3-7.6-8.075-2.215-2.536-2.3-5.361-1.154-8.246a5.739,5.739,0,0,0,.572-2.822c-.8-4.853-2.09-9.589-5.413-13.6C6.2,56.056,6.247,55.171,7.669,54.3a6.06,6.06,0,0,0,3.043-5.925c-.259-3.771-.54-7.536-.932-11.3-.366-3.5-1.247-6.976-.238-10.441a4.321,4.321,0,0,0-.565-2.645c-1.013-2.146-2.371-4.165-3.229-6.353C3.762,12.6,1.96,7.51.157,2.413A8.591,8.591,0,0,1,.011,0,8.716,8.716,0,0,1,2.645.2C5.106,1.2,7.5,2.373,9.923,3.481A24.872,24.872,0,0,0,21.638,6.044c5.744-.28,11.546-.046,17.321-.1a6.724,6.724,0,0,0,2.852-.6A17.833,17.833,0,0,1,54.145,3.834,66.091,66.091,0,0,0,75.66,5.064,42.168,42.168,0,0,1,92.181,6.234a5.569,5.569,0,0,1,2.151,1.087,31.209,31.209,0,0,1,3.77,4.03,15.582,15.582,0,0,1,2.405,4.362c.81,2.5,1.764,4.791,3.9,6.553a16.191,16.191,0,0,1,3.015,3.085,18.75,18.75,0,0,1,2.483,4.607,69.562,69.562,0,0,1,1.8,7.166,18.3,18.3,0,0,1,.886,4.908c-.276,4.479,1.172,8.431,3.294,12.456a17.649,17.649,0,0,1,.224,16.261c-.89,1.925-2.21,3.629-3.242,5.487A15.032,15.032,0,0,0,110.82,80.6c-.846,4.778-1.659,9.529-3.759,13.9a6.347,6.347,0,0,0-.617,2.844c.046,1.263.064,2.767,1.734,3.3,5.355,1.706,9.238,5.47,12.932,9.492,6.385,6.954,11.2,15,16.482,22.712.407.6.116,1.657.16,2.511Zm-31.2-46.945a26,26,0,0,0,2.057-6.088c.734-3.924,2.814-7.108,4.906-10.262,3.437-5.192,2.8-10.8.378-16.287-1.718-3.9-3.678-7.565-3.124-11.858.4-3.121-.823-6.029-1.821-8.976-.384-1.13-.331-2.384-.76-3.492a27.051,27.051,0,0,0-2.565-5.364c-.937-1.384-2.59-2.311-3.567-3.678a49.322,49.322,0,0,1-3.009-5.43,43.607,43.607,0,0,0-2.43-4.57C92.843,7.027,87.32,6.629,81.708,6.688c-6.644.068-13.272.3-19.92.249A33.583,33.583,0,0,1,55.016,5.9c-4.5-.977-8.735-.765-12.722,1.345a7.453,7.453,0,0,1-3.271.548c-5.775.06-11.575-.145-17.326.118A26.239,26.239,0,0,1,9.386,5.232c-2.342-1.07-4.706-2.1-7.624-3.4,3.76,7,4.167,14.552,8.414,20.844,1.138,1.69,1.031,3.432.993,5.349-.072,3.4.5,6.843.72,10.273.259,3.966.594,7.946.58,11.9-.007,2.517-1.7,4.273-3.446,5.635a90.833,90.833,0,0,1,4.131,9.026c1.191,3.535,2.35,7.172.435,10.8a4.3,4.3,0,0,0,.879,4.879c2.561,2.846,5.167,5.659,7.84,8.4a10.4,10.4,0,0,1,3.006,6.282,3.657,3.657,0,0,0,.93,1.89c6.065,6.551,13.82,9.33,22.161,10.831,11.549,2.075,22.974,1.339,34.219-.163,6.347-.848,12.633-2.7,17.876-6.559.454-.331.883-.692,1.341-1.047a5.22,5.22,0,0,0-4.417-2.316c-8.851-.573-17.664-.3-26.577-2.121-7.548-1.545-15.333-1.415-23.007-2.17-4.195-.414-8.375-1.121-12.565-1.737A2.9,2.9,0,0,1,33.491,90.8c.7.028,1.4.021,2.1.077,10.281.86,20.561,1.7,30.844,2.612,2.8.25,5.588.821,8.391,1.048,7.373.594,14.748,1.092,22.636,1.656a12.973,12.973,0,0,0-6.94-5.064A208.556,208.556,0,0,0,44.9,82.623c-6.2-.455-12.4-1.266-18.6-1.933a6.045,6.045,0,0,1-2.086-.665c22.013.485,43.949,1.831,65.888,9.061a14.083,14.083,0,0,0-1-1.328c-2.053-2.024-4.282-3.9-6.144-6.087-2.59-3.049-5.89-4.143-9.507-4.453-10.317-.883-20.235-4.012-30.13-7.141-5.413-1.714-10.672-4.035-15.987-6.126a24.91,24.91,0,0,1-2.8-1.6c9.026,2.98,17.41,6.015,25.926,8.489,8.5,2.468,17.08,4.761,26.084,5.044a4.317,4.317,0,0,0-.432-.653c-4.355-4.383-8.643-8.839-13.138-13.071a9.406,9.406,0,0,0-4.219-1.723C48.9,58.1,39,55.919,29.161,53.494c-1.993-.489-3.833-1.8-5.747-2.738.094-.141.183-.277.277-.418,5.948,1.576,11.877,3.265,17.85,4.7,5.891,1.412,11.831,2.567,17.958,3.4a12.164,12.164,0,0,0-.884-1.18c-4.237-4.495-8.457-9.006-12.761-13.433a7.329,7.329,0,0,0-2.717-1.554c-6.642-2.422-13.3-4.745-19.94-7.184a5.7,5.7,0,0,1-2.413-2.018c6.986,2.478,13.978,4.956,21.509,7.63-.57-.784-.76-1.1-1.006-1.369C36.8,34.515,32.215,29.779,27.842,24.86a75.27,75.27,0,0,0-15.4-13.2,20.732,20.732,0,0,0-4.372-1.624c.184-.421.374-.841.557-1.267a26.939,26.939,0,0,1,4.533,2.118c4.788,3.418,9.611,6.819,14.132,10.579,2.531,2.1,4.454,4.939,6.718,7.373,2.708,2.914,5.489,5.761,8.248,8.63a4.24,4.24,0,0,0,1.671,1.107c-3.622-7.6-7.244-15.2-10.965-23.01,2.414,1.678,3.28,4.119,4.378,6.383,3.14,6.476,6.234,12.975,9.356,19.462a3.293,3.293,0,0,0,.549.853c4.938,5.041,9.888,10.077,15.021,15.026a177.03,177.03,0,0,0-12.606-36.2A13.36,13.36,0,0,1,51.779,23.8c2.7,6.359,5.448,12.708,7.822,19.172,1.765,4.814,2.881,9.833,4.5,14.694A12.965,12.965,0,0,0,66.859,62.3c3.7,3.942,7.6,7.694,11.607,11.427C75,55.956,72.572,38.107,67.825,20.465a11.088,11.088,0,0,1,.85,1.755c1.8,6.273,3.806,12.518,5.294,18.845,1.815,7.7,3.181,15.483,4.771,23.225.782,3.8,1.523,7.613,2.495,11.376a7.092,7.092,0,0,0,1.994,2.724c3.145,3.164,6.352,6.267,9.542,9.386a5.042,5.042,0,0,0,.746.456C89.366,67.35,88.067,46.487,85.4,25.709c2.232,5.123,2.53,10.5,3.226,15.812,1.859,14.22,3.649,28.437,5.642,42.65.576,4.1,1.548,8.247,6.339,10.783.358-4.627.858-9.157,1.021-13.72.271-7.585.273-15.2.485-22.782a12.389,12.389,0,0,1,1.233-4.847,4.485,4.485,0,0,1,.2.916c-.015,10.514.045,21.037-.121,31.546-.049,3.219-.784,6.382-1.071,9.593a4.188,4.188,0,0,0,.96,2.491c.21-3.646,1.8-6.644,3.236-9.733Z" transform="matrix(0.669, 0.743, -0.743, 0.669, 100.594, 0)"/></g><path class="d" d="M1.08,135.618a59.338,59.338,0,0,1,3.172-6.873c1.394-2.74,2.836-5.479,4.23-8.219a1.9,1.9,0,0,0,.048-1.154,40.6,40.6,0,0,1-2.067-5,65.547,65.547,0,0,1-2.4-15,67.816,67.816,0,0,1,1.3-17.063A48.721,48.721,0,0,1,15.644,61.358c3.941-4.71,7.546-9.661,11.1-14.612,4.374-6.1,8.988-11.968,15.525-16.006,3.413-2.115,6.825-4.278,10.67-5.527a71.684,71.684,0,0,0,7.21-2.692c5.047-2.259,10-4.758,15.044-7.017,5-2.259,9.949-4.518,15.477-5.383a21.919,21.919,0,0,0,5.479-1.682c2.4-1.009,4.614-2.547,7.017-3.413A14.785,14.785,0,0,0,109.61.412c.336-.385.577-.625,1.057-.144.144.144.481.144.721.192-.481,2.019-.913,3.989-1.394,5.96a69.521,69.521,0,0,1-2.115,7.835c-1.2,3.316-2.644,6.537-3.172,10.094-.433,3.028-1.105,5.96-1.49,8.988-.673,5.576-1.538,11.151-4.037,16.294A120.992,120.992,0,0,0,92.74,65.636a37.294,37.294,0,0,1-5.095,10.382c-5,6.825-10.334,13.458-15.477,20.139-4.037,5.239-9.228,9.18-14.8,12.641-4.566,2.836-9.228,5.431-13.987,7.979a27.2,27.2,0,0,1-9.276,3.365c-3.653.481-7.21,1.154-10.863,1.634-2.4.336-4.806.769-7.21-.144a13.384,13.384,0,0,0-3.413-.625,2.673,2.673,0,0,0-3.22,1.778c-1.586,3.124-3.172,6.2-4.71,9.325s-2.884,6.3-2.692,9.949a10.822,10.822,0,0,0,1.923,5.912c.192.24.336.817.192,1.009a1.229,1.229,0,0,1-1.057.433,2.067,2.067,0,0,1-1.154-.865c-2.451-4.182-2.307-8.6-.817-12.929ZM66.5,21.08c-4.806,2.547-10,4.086-15,6.152a16.5,16.5,0,0,0-5,3.316,99.554,99.554,0,0,0-7.931,8.315,67.983,67.983,0,0,0-8.892,14.516c-.817,1.778-1.778,3.461-2.6,5.239a79.159,79.159,0,0,0-4.662,14.323c-.673,2.74-1.394,5.479-1.875,8.267a83.628,83.628,0,0,0-1.49,15.861c.048,2.163.433,4.326.673,6.537h.385c2.067-2.547,4.134-5.095,6.248-7.642,1.2-1.49,2.547-2.884,3.749-4.374,1.105-1.394,2.115-2.836,3.124-4.326a1.383,1.383,0,0,0,.144-.769,30.88,30.88,0,0,1-.481-3.6,44.522,44.522,0,0,1,2.4-15.669c.913-2.6,1.634-5.239,2.643-7.835a62.959,62.959,0,0,1,6.873-12.3,113.867,113.867,0,0,1,6.969-10.094c3.509-4.182,7.5-8.075,11.247-12.016,1.2-1.3,2.5-2.5,3.8-3.845a1.707,1.707,0,0,1-.336-.048Zm22.735-9.325a28.978,28.978,0,0,0-4.566,1.2c-4.614,1.875-9.228,3.749-13.7,5.864a17.141,17.141,0,0,0-4.23,3.509c-5.191,5.143-10.622,10.094-15,16.006a156.514,156.514,0,0,0-9.853,15.717c-3.268,5.72-4.951,11.968-6.585,18.217a40.81,40.81,0,0,0-1.009,11.872,4.791,4.791,0,0,0,.1.769c0,.1.1.192.24.433.481-.529.961-1.009,1.394-1.49,5.816-6.825,11.584-13.7,17.447-20.524A20.493,20.493,0,0,0,56.98,56.6q1.658-4.686,3.461-9.373A57.079,57.079,0,0,1,66.4,36.316,78.29,78.29,0,0,1,78.32,21.849c2.644-2.5,5.287-5.047,7.979-7.546a29.518,29.518,0,0,1,3.076-2.211c-.1-.192-.1-.24-.144-.336ZM99.18,8.727c-2.211.913-4.422,1.778-6.633,2.692a4.421,4.421,0,0,0-1.346.673,108.888,108.888,0,0,0-13.65,12.545A84.472,84.472,0,0,0,65.775,40.21a47.715,47.715,0,0,0-4.758,11.3A52.964,52.964,0,0,1,58.9,56.936a.364.364,0,0,0,.192.1c1.586-1.923,3.172-3.845,4.71-5.816,3.413-4.278,6.825-8.556,10.19-12.881a94.234,94.234,0,0,1,9.132-9.469C88.51,23.627,93.8,18.2,99.084,12.861c2.019-2.019,3.989-4.086,6.008-6.1.24-.24.384-.481.769-.961-2.4,1.057-4.518,2.019-6.681,2.932ZM103.7,22.233c-.048-2.6,1.394-4.71,2.115-7.066.913-3.076,1.778-6.1,2.692-9.18.288-.961.577-1.923.865-3.028-1.154,1.49-2.115,2.932-3.268,4.182C103.891,9.592,101.535,12,99.276,14.4,94.182,19.734,89.231,25.213,83.9,30.308A116.763,116.763,0,0,0,71.062,45.016c-2.74,3.7-5.816,7.114-8.748,10.67-.913,1.105-1.778,2.163-2.836,3.461,1.057-.24,1.875-.433,2.644-.625,5.479-1.538,10.286-4.326,15-7.4a79.649,79.649,0,0,0,15-13.41c2.115-2.307,4.23-4.566,6.152-7.017,1.875-2.451,3.461-5.095,5.191-7.642a2.3,2.3,0,0,0,.24-.817Zm-.529,2.932c-.673,1.009-1.25,1.73-1.73,2.547-2.019,3.6-4.9,6.537-7.642,9.565-2.5,2.74-5.095,5.431-7.738,8.075a65.132,65.132,0,0,1-10.526,8.315c-3.028,1.923-5.96,3.989-9.421,5.047-2.788.865-5.624,1.586-8.411,2.451a2.072,2.072,0,0,0-.817.625c-2.163,2.6-4.326,5.287-6.489,7.883-3.22,3.845-6.489,7.69-9.757,11.536-1.346,1.586-2.692,3.22-3.989,4.855-.1.144-.144.288-.336.577,1.105-.385,2.067-.769,2.98-1.057,2.644-.817,5.335-1.538,8.027-2.355a9.446,9.446,0,0,0,1.923-.769l6.345-3.316C62.651,75.393,69,70.635,75.34,65.828a130.423,130.423,0,0,0,16.2-14.66c2.74-2.884,5.287-5.912,7.931-8.94a9.749,9.749,0,0,0,2.4-5.672c.24-3.749.817-7.45,1.3-11.391ZM90.721,66.549A117.094,117.094,0,0,1,97.45,50.976a29.345,29.345,0,0,0,3.22-8.7c-1.105,1.3-2.019,2.4-3.028,3.461-3.7,3.989-7.4,7.931-11.151,11.872C81.3,63.088,75.34,67.751,69.38,72.365a80.053,80.053,0,0,1-15.333,9.517,8.53,8.53,0,0,0-1.586.913,27.388,27.388,0,0,1-9.132,3.653,35.158,35.158,0,0,0-3.845,1.105,13.579,13.579,0,0,1-4.614,1.154,2.085,2.085,0,0,0-1.346.913c-2.884,3.557-5.72,7.114-8.556,10.67-1.105,1.394-2.163,2.788-3.22,4.182.048.1.048.24.1.336l5.239-.288a12.3,12.3,0,0,1,1.3-.24,26.87,26.87,0,0,0,9.325-2.307,158.12,158.12,0,0,0,14.948-6.537A114.924,114.924,0,0,0,69.669,85.2c3.845-2.884,7.642-5.816,11.439-8.8,2.355-1.875,4.662-3.8,6.969-5.72a9.161,9.161,0,0,0,2.644-4.134ZM12.039,118.988c2.211.529,4.422,1.105,6.633,1.538a8.794,8.794,0,0,0,2.5-.1c4.758-.673,9.565-1.2,14.227-2.211a32.475,32.475,0,0,0,7.642-3.028c3.845-1.971,7.642-4.134,11.343-6.393,5.239-3.22,10.334-6.681,14.419-11.391,2.548-2.932,4.855-6.008,7.306-9.084,2.884-3.653,5.768-7.258,8.555-10.959,1.346-1.778,2.451-3.7,3.653-5.576-.048-.048-.144-.1-.192-.144-.817.721-1.586,1.442-2.4,2.115C81.3,77.412,76.878,81.113,72.36,84.621c-2.884,2.259-5.96,4.326-9.036,6.345-2.4,1.538-4.9,2.98-7.4,4.278-2.932,1.538-5.96,2.884-8.94,4.422a61.5,61.5,0,0,1-14.035,5.143,29.487,29.487,0,0,1-11.055,1.009,1.14,1.14,0,0,0-.961.336c-.529.529-.865,1.2-1.346,1.73-3.028,3.268-4.9,7.354-7.45,10.959a.171.171,0,0,0-.1.144Zm-2.5-1.923a7.01,7.01,0,0,0,.529.865c1.586-2.451,3.028-4.758,4.566-7.017,1.057-1.538,2.163-2.98,3.316-4.422a1.866,1.866,0,0,0,.337-1.875,26.009,26.009,0,0,1-1.057-9.228c.385-10.767,2.788-21.1,6.248-31.29A106.958,106.958,0,0,1,29.2,51.457C32.8,44.2,37.273,37.47,43.425,32.038a5.486,5.486,0,0,0,.529-.529,41.284,41.284,0,0,0-12.833,12.3c-4.71,6.825-9.613,13.506-14.948,19.851a41.746,41.746,0,0,0-8.507,17.3,61.915,61.915,0,0,0-.1,29.368,59.257,59.257,0,0,0,1.971,6.729Z" transform="matrix(-0.139, -0.99, 0.99, -0.139, 15.501, 176.142)"/></g></g></svg>